<svg id="Capa_1" data-name="Capa 1" xmlns="http://www.w3.org/2000/svg" viewBox="0 0 100 100"><defs><style>.cls-1{fill:#00c2d1;}.cls-2{fill:#184d52;}.cls-3{fill:#ccf3f6;}</style></defs><title>bootstrap0</title><polygon class="cls-1" points="91.3 77.69 50.44 100 5.22 77.69 0 16.53 50.44 0 100 16.53 91.3 77.69"/><polyline class="cls-2" points="50.44 0 100 16.53 91.3 77.69 50.44 100"/><path class="cls-3" d="M67.83,44.63S75.65,43,75.65,33.06,67.83,19.83,63.48,19.83h-33V75.21H61.74S78.26,73.55,78.26,59.5,67.83,44.63,67.83,44.63ZM39.13,27.27H57.39c3.48,0,6.09,2.48,6.09,8.27s-7,6.61-7,6.61H39.13ZM60,66.94H39.13V49.59H60s6.09.82,6.09,8.26S60,66.94,60,66.94Z"/></svg>