<svg id="Capa_1" data-name="Capa 1" xmlns="http://www.w3.org/2000/svg" viewBox="0 0 100 100"><defs><style>.cls-1{fill:#184d52;}.cls-2{fill:#ccf3f6;}</style></defs><title>github0</title><circle class="cls-1" cx="50" cy="50" r="50"/><path class="cls-2" d="M77.47,20.27c-3.25-2.17-9.26,2.22-13,6.23a48.38,48.38,0,0,0-14-2.18,43.12,43.12,0,0,0-10.95,1.45c-4-3.93-10.9-8-14.27-6.15s-2.34,9.39-.5,14.59a20.94,20.94,0,0,0-5.36,14.44c0,15.61,10.46,21.6,21.41,23.53a9.94,9.94,0,0,0-2.38,4.91L38.28,77s-2.7,2.7-5.41,2.7-6.75-2.7-9.46-8.11S14,68.92,14,68.92s-2.7,1.35,1.36,2.7,9.46,12.16,9.46,12.16,4.05,5.41,12.16,2.71c.48-.16.92-.32,1.35-.48V98.6A49.83,49.83,0,0,0,64,98V78.38A14.76,14.76,0,0,0,61.28,72c11.43-2.07,23-8.14,23-23.39A19.54,19.54,0,0,0,78.91,35C80.33,29.7,80.52,22.3,77.47,20.27Z"/></svg>