<svg id="Capa_1" data-name="Capa 1" xmlns="http://www.w3.org/2000/svg" viewBox="0 0 100 100"><defs><style>.cls-1{fill:#184d52;}.cls-2{fill:#ccf3f6;}.cls-3{fill:#00c2d1;}</style></defs><title>java0</title><rect class="cls-1" width="100" height="100"/><path class="cls-2" d="M58.05,11.15a4.56,4.56,0,0,1,.7.92,13.27,13.27,0,0,1-2.81,14.05c-2.65,2.74-5.51,5.29-8.19,8A13.9,13.9,0,0,0,44.36,39a5.82,5.82,0,0,0-.13,3.73,30,30,0,0,0,4,8,11,11,0,0,1,1.25,2.33,4.6,4.6,0,0,1-.63-.42,53,53,0,0,1-8.22-10,5.94,5.94,0,0,1,.08-6.87A28.81,28.81,0,0,1,46.19,30c2.56-2.26,5.24-4.37,7.73-6.7a12.38,12.38,0,0,0,3.9-11.06,4.17,4.17,0,0,1,0-.61C57.78,11.57,57.87,11.48,58.05,11.15Z"/><path class="cls-3" d="M74.3,77.36l.92,1.36c-.74,1.52-2.07,2.08-3.36,2.67a31.8,31.8,0,0,1-8.69,2.25,80.51,80.51,0,0,1-11.39.94c-3.36,0-6.71.28-10.07.23a91.4,91.4,0,0,1-16.83-1.54,15.81,15.81,0,0,1-2.19-.68,1.88,1.88,0,0,1-1.37-1.88,3.91,3.91,0,0,1,2.19-2.16,24.62,24.62,0,0,1,8-2A3.89,3.89,0,0,1,33,76.8c-2.12.93-4.73.64-6.32,2.64.12,1,.84,1.11,1.45,1.25a36.69,36.69,0,0,0,5.24,1c4.51.32,9,.63,13.56.62,4.87,0,9.76-.22,14.62-.64A96.45,96.45,0,0,0,71.42,80C73.17,79.66,73.45,79.31,74.3,77.36Z"/><path class="cls-2" d="M52.9,55.77c.51-.87,1-1.74,1.51-2.61a3,3,0,0,0,0-3.33c-.7-1.13-1.44-2.22-2.16-3.33a10.93,10.93,0,0,1-2.24-6,8.5,8.5,0,0,1,2.26-5.69,21.15,21.15,0,0,1,8.08-5.62c1.73-.72,3.5-1.37,5.26-2a4.93,4.93,0,0,1,1-.16l.16.27c-.54.38-1.07.78-1.63,1.13a41.16,41.16,0,0,0-7.65,5.79,17.83,17.83,0,0,0-2,2.46,4,4,0,0,0-.19,4.48c.62,1.1,1.31,2.17,2,3.26.08.13.17.25.25.39,2.18,3.55,1.9,6-1.09,8.85A11.37,11.37,0,0,1,53.16,56Z"/><path class="cls-3" d="M61.82,75c-2,.53-3.87,1.15-5.84,1.57a37.41,37.41,0,0,1-15,0,14.36,14.36,0,0,1-4-1.47C35.55,74.3,35.57,72.9,37,72a23.8,23.8,0,0,1,2.15-1.17l.14,1.73a16.89,16.89,0,0,0,3,.65c3.15.08,6.31.1,9.46,0,1.66-.06,3.31-.45,5-.67a2.64,2.64,0,0,1,1.33,0c1.31.64,2.56,1.39,3.83,2.1Z"/><path class="cls-3" d="M66,56.83c-1.33.78-2.53,1.82-4.15,2-4,.45-8.07,1-12.12,1.25a87.87,87.87,0,0,1-9.6.27c-3.34-.12-6.67-.56-10-.94a3.29,3.29,0,0,1-2.59-1.28c0-.91.58-1.25,1.15-1.55A27.56,27.56,0,0,1,40,53.67a4.81,4.81,0,0,1-.75.45c-1.33.5-2.69.93-4,1.47a16.36,16.36,0,0,0-1.92,1.06l0,.4a5.82,5.82,0,0,0,1.28.58,26.86,26.86,0,0,0,4.07.54c3.67.07,7.35.2,11,0,4.2-.25,8.38-.85,12.57-1.31,1.19-.13,2.38-.31,3.57-.47Z"/><path class="cls-3" d="M63.32,66.46a36.58,36.58,0,0,1-4.23,1.17c-3.16.5-6.33,1-9.51,1.23a48.2,48.2,0,0,1-7.3-.3c-1.92-.18-3.83-.53-5.72-.89-1.31-.25-2.64-.59-3-2.31.52-1.72,1.91-2.4,3.77-2.88l-.3,1.74a5.25,5.25,0,0,0,3.81,1.28,78.3,78.3,0,0,0,16-.78,19.18,19.18,0,0,1,2.26-.31,3,3,0,0,1,1.46.24C61.4,65.1,62.17,65.69,63.32,66.46Z"/><path class="cls-3" d="M32.6,86.21a4.78,4.78,0,0,1,1-.12c3.13.26,6.26.63,9.4.8,2.7.14,5.4.06,8.1.08a85.56,85.56,0,0,0,17-1.54A24.53,24.53,0,0,0,77.15,82a7.65,7.65,0,0,1,.93-.52c.07,0,.18,0,.5.08a5.29,5.29,0,0,1-1,1.48,29.64,29.64,0,0,1-3.86,2.41C70.54,87,67,87.38,63.55,87.89a89.78,89.78,0,0,1-16,.91A69.94,69.94,0,0,1,33.4,86.87a6.38,6.38,0,0,1-.82-.33Z"/><path class="cls-3" d="M68.69,53.64a2.73,2.73,0,0,1,.57-.41c3.08-1.17,6.52-.65,8.63,2.53a4.89,4.89,0,0,1-.12,5.5,12,12,0,0,1-2.32,2.61A18.59,18.59,0,0,1,67,68l-.18-.27c.47-.33.94-.67,1.42-1A21.28,21.28,0,0,0,73.7,62a6,6,0,0,0,1.44-3.61,4,4,0,0,0-4-4.36c-.78,0-1.57,0-2.35,0Z"/></svg>