<svg xmlns="http://www.w3.org/2000/svg" viewBox="0 0 200 200"><defs><style>.ffad2657-f248-44b7-a4ad-89903bd2d6b8{fill:#00929d;}.b3cfbcdc-273c-4be9-a732-bcce1d747bbd{fill:#00c2d1;}.bcd67b11-22ed-4249-ab47-59700f4e53cc{fill:#8de1e8;}.fb6ed2ba-5ef5-4cbd-80ba-0b4add4f8508{fill:#fff;}</style></defs><title>icon</title><g id="b172ff9c-edb4-4b0d-bcc4-7fc377f5210e" data-name="ESTUDIO"><g id="fb296e44-e459-46e0-8cf1-e9cc86b4dc8f" data-name="MAN"><path class="ffad2657-f248-44b7-a4ad-89903bd2d6b8" d="M160.62,106.11a31.57,31.57,0,0,1-3.86-.71L145,102.25a40,40,0,1,0-64.71-3.69l-33.15,6.88a28.33,28.33,0,0,1-3.66.65A12.05,12.05,0,0,0,33,118v60a12,12,0,0,0,12,12H159a12,12,0,0,0,12-12V118A12,12,0,0,0,160.62,106.11Z"/><g id="eb7d5240-e24e-4538-b703-99f2e4db315d" data-name="brazos"><path class="b3cfbcdc-273c-4be9-a732-bcce1d747bbd" d="M120.45,112.65l.87-.5a12,12,0,0,1,16.39,4.39l30,60A12,12,0,0,1,163.33,193l-.87.5a12,12,0,0,1-16.39-4.39l-30-60A12,12,0,0,1,120.45,112.65Z"/><rect class="b3cfbcdc-273c-4be9-a732-bcce1d747bbd" x="60.12" y="144.05" width="25" height="76" rx="12" transform="translate(252.59 104.42) rotate(88.41)"/></g></g><g id="ad62588e-e713-4dbc-8600-d01873bf8686" data-name="RESTA"><rect class="ffad2657-f248-44b7-a4ad-89903bd2d6b8" x="21.94" y="70.88" width="38.06" height="8.46" rx="4.23"/><rect class="b3cfbcdc-273c-4be9-a732-bcce1d747bbd" x="21" y="69" width="38.06" height="8.46" rx="4.23"/></g><g id="b468f172-01b7-42f6-a4dd-0a681474aac2" data-name="SUMA"><path class="ffad2657-f248-44b7-a4ad-89903bd2d6b8" d="M54.92,38.74H45.26V29.08a3.86,3.86,0,0,0-3.87-3.86h0a3.86,3.86,0,0,0-3.86,3.86v9.66H27.87A3.87,3.87,0,0,0,24,42.61h0a3.86,3.86,0,0,0,3.87,3.86h9.66v9.67A3.86,3.86,0,0,0,41.39,60h0a3.86,3.86,0,0,0,3.87-3.86V46.47h9.66a3.86,3.86,0,0,0,3.87-3.86h0A3.87,3.87,0,0,0,54.92,38.74Z"/><path class="b3cfbcdc-273c-4be9-a732-bcce1d747bbd" d="M53.42,37H43.76V27.36a3.86,3.86,0,0,0-3.87-3.86h0A3.86,3.86,0,0,0,36,27.36V37H26.36a3.86,3.86,0,0,0-3.86,3.86h0a3.86,3.86,0,0,0,3.86,3.87H36v9.66a3.86,3.86,0,0,0,3.86,3.86h0a3.86,3.86,0,0,0,3.87-3.86V44.76h9.66a3.86,3.86,0,0,0,3.86-3.87h0A3.86,3.86,0,0,0,53.42,37Z"/></g><g id="bb1ebe6c-5ab0-43fc-91d8-3a4925aeeead" data-name="LIBRO"><rect class="bcd67b11-22ed-4249-ab47-59700f4e53cc" x="17" y="177" width="166" height="13.46"/><path class="bcd67b11-22ed-4249-ab47-59700f4e53cc" d="M100,189.5A12.5,12.5,0,1,1,112.5,177,12.52,12.52,0,0,1,100,189.5Zm0-22a9.5,9.5,0,1,0,9.5,9.5A9.51,9.51,0,0,0,100,167.5Z"/><rect class="fb6ed2ba-5ef5-4cbd-80ba-0b4add4f8508" x="105" y="170" width="67" height="6"/><rect class="fb6ed2ba-5ef5-4cbd-80ba-0b4add4f8508" x="28" y="170" width="67" height="6"/></g></g></svg>