<svg xmlns="http://www.w3.org/2000/svg" viewBox="0 0 98 97.89"><defs><style>.cls-1{fill:#00c2d1;}.cls-2{fill:#00929d;}.cls-3{fill:#fff;}</style></defs><title>ANGULAR0</title><g id="Capa_2" data-name="Capa 2"><g id="Capa_1-2" data-name="Capa 1"><path class="cls-1" d="M85.4,79.88,55,96.46a11.71,11.71,0,0,1-10.8.22L10.4,80a11.72,11.72,0,0,1-6.49-9.51L0,25.14A11.71,11.71,0,0,1,8.07,13L46,.58a11.76,11.76,0,0,1,7.35,0L90,12.82a11.7,11.7,0,0,1,7.89,12.76L91.39,71.25A11.7,11.7,0,0,1,85.4,79.88Z"/><path class="cls-2" d="M53.64.69,89.37,12.61a12.49,12.49,0,0,1,8.42,13.61L91.44,70.86a12.46,12.46,0,0,1-6.38,9.2L54.13,97a3,3,0,0,1-4.44-2.63V3.54A3,3,0,0,1,53.64.69Z"/><path class="cls-3" d="M49.69,10.12,19.25,74.58H30.56l6.09-14.87h27l7,14.87h11.3ZM41,50.62l8.7-19.84,9.56,19.84Z"/></g></g></svg>