<svg xmlns="http://www.w3.org/2000/svg" viewBox="0 0 98 97.89"><defs><style>.cls-1{fill:#00c2d1;}.cls-2{fill:#00929d;}.cls-3{fill:#fff;}</style></defs><title>BOOT0</title><g id="Capa_2" data-name="Capa 2"><g id="Capa_1-2" data-name="Capa 1"><path class="cls-1" d="M85.4,79.88,55,96.46a11.71,11.71,0,0,1-10.8.22L10.4,80a11.72,11.72,0,0,1-6.49-9.51L0,25.14A11.71,11.71,0,0,1,8.07,13L46,.58a11.76,11.76,0,0,1,7.35,0L90,12.82a11.7,11.7,0,0,1,7.89,12.76L91.39,71.25A11.7,11.7,0,0,1,85.4,79.88Z"/><path class="cls-2" d="M53.64.69,89.37,12.61a12.49,12.49,0,0,1,8.42,13.61L91.44,70.86a12.46,12.46,0,0,1-6.38,9.2L54.13,97a3,3,0,0,1-4.44-2.63V3.54A3,3,0,0,1,53.64.69Z"/><path class="cls-3" d="M67.08,44s7.83-1.65,7.83-11.57S67.08,19.21,62.73,19.21h-33V74.58H61s16.53-1.65,16.53-15.7S67.08,44,67.08,44ZM38.39,26.65H56.65c3.47,0,6.08,2.48,6.08,8.26s-6.95,6.62-6.95,6.62H38.39ZM59.25,66.32H38.39V49H59.25s6.09.83,6.09,8.27S59.25,66.32,59.25,66.32Z"/></g></g></svg>