<svg xmlns="http://www.w3.org/2000/svg" viewBox="0 0 100 100"><defs><style>.cls-1{fill:#00929d;}.cls-2{fill:#fff;}</style></defs><title>GIT0</title><g id="Capa_2" data-name="Capa 2"><g id="Capa_1-2" data-name="Capa 1"><rect class="cls-1" x="12.02" y="12.02" width="75.96" height="75.96" rx="8.9" transform="translate(-20.67 52.26) rotate(-46.83)"/><path class="cls-2" d="M72.65,38a10,10,0,0,0-3.94.81l-8.65-8.65A9.82,9.82,0,0,0,61,26,9.95,9.95,0,0,0,46.84,17L37.3,7.4l-4.24,4.24L42.4,21A9.89,9.89,0,0,0,48,35.5v25a10,10,0,1,0,6,0v-25a10.16,10.16,0,0,0,2-.89l8.16,8.15A9.88,9.88,0,0,0,62.66,48a10,10,0,1,0,10-10Z"/></g></g></svg>