<svg xmlns="http://www.w3.org/2000/svg" viewBox="0 0 97.55 99.62"><defs><style>.cls-1{fill:#00929d;}.cls-2{fill:#00c2d1;}.cls-3{fill:#fff;}</style></defs><title>HTML0</title><g id="Capa_2" data-name="Capa 2"><g id="Capa_1-2" data-name="Capa 1"><path class="cls-1" d="M82.29,91.19l-30.66,8a11.71,11.71,0,0,1-5.82,0L16,91.79a11.72,11.72,0,0,1-8.8-10.15L.06,12.92A11.72,11.72,0,0,1,11.71,0H85.84A11.71,11.71,0,0,1,97.5,12.83L91,81A11.72,11.72,0,0,1,82.29,91.19Z"/><path class="cls-2" d="M49.11,8.84V91.57l26.8-7a10.72,10.72,0,0,0,7.94-9.33l5.23-54.64A10.71,10.71,0,0,0,78.42,8.84Z"/><polygon class="cls-3" points="80.9 18.37 79.34 29.93 32.06 29.93 32.83 40.82 78.57 40.82 75.47 74.83 49.11 81.63 22.76 75.51 21.98 57.14 35.16 57.14 35.16 65.99 49.11 69.39 63.07 65.99 63.84 52.38 21.21 52.38 17.33 18.37 80.9 18.37"/></g></g></svg>