<svg xmlns="http://www.w3.org/2000/svg" viewBox="0 0 97.55 99.62"><defs><style>.cls-1{fill:#00929d;}.cls-2{fill:#00c2d1;}.cls-3{fill:#fff;}</style></defs><title>JS0</title><g id="Capa_2" data-name="Capa 2"><g id="Capa_1-2" data-name="Capa 1"><path class="cls-1" d="M82.29,91.19l-30.66,8a11.71,11.71,0,0,1-5.82,0L16,91.79a11.72,11.72,0,0,1-8.8-10.15L.06,12.92A11.72,11.72,0,0,1,11.71,0H85.84A11.71,11.71,0,0,1,97.5,12.83L91,81A11.72,11.72,0,0,1,82.29,91.19Z"/><path class="cls-2" d="M48.73,8V90.73l26.79-7a10.72,10.72,0,0,0,7.94-9.34l5.23-54.64A10.71,10.71,0,0,0,78,8Z"/><polygon class="cls-3" points="34.38 57.14 35.16 65.31 49.11 68.71 62.29 65.31 66.17 29.25 18.11 29.25 17.33 18.37 80.9 18.37 75.47 74.15 49.11 80.95 22.76 74.83 21.21 56.46 34.38 57.14"/></g></g></svg>