<svg xmlns="http://www.w3.org/2000/svg" viewBox="0 0 100 100"><defs><style>.cls-1{fill:#00929d;}.cls-2{fill:#fff;}</style></defs><title>MYSQL0</title><g id="Capa_2" data-name="Capa 2"><g id="Capa_1-2" data-name="Capa 1"><rect class="cls-1" width="100" height="100" rx="11.97"/><path class="cls-2" d="M37.52,53.34c-3,2.26-2.29,5.64-3.73,8.58-4.37-6.18-2.55-12.08-.94-18-2.8-3-4.1-6.73-5.11-10.5s-4.89-5.95-5.2-9.69c.7-.79,1.22-.82,1.62-.62A73.08,73.08,0,0,0,39.4,28.64a5.94,5.94,0,0,1,1.66.85,36,36,0,0,1,14.87,16.4c1.41,3.13,2.91,6.24,4.19,9.42a9.3,9.3,0,0,0,6.59,6.06,15.46,15.46,0,0,1,8.53,5.43c-2.67,1.32-5.84.65-8,3.15,2.63,5.31,7.8,6.73,12.89,9.56-1.91-4.45-5.9-5.54-8.54-8.27,2.32-2.31,6-.54,8.27-3.12C76,63,70.68,60.1,65.1,57.58c-2.53-4.2-4.08-8.84-6.37-13.08C53.07,34,45.34,26.14,32.4,24.22a19.44,19.44,0,0,0-5.69-3.14c-2.15-.64-4.39-1.24-6,.94s-.5,4.1.82,6,3.24,3.79,3.94,6.32a31.19,31.19,0,0,0,4.64,10c-2,14.76-1,18.85,5.11,20.24,2.09-.85,1.56-3.21,2.74-4.78,1.27,1.41,3.59,4.27,3.59,4.27s5.14,5.46,3.05,2.82C40.32,61.52,37.52,53.34,37.52,53.34Z"/><path class="cls-2" d="M35.11,34.13c0-2.23,0-2.23-2.11-2.64A2.83,2.83,0,0,0,35.11,34.13Z"/></g></g></svg>